<?xml version="1.0" encoding="utf-8"?>
<svg viewBox="0 0 400 400" width="400" height="400" xmlns="http://www.w3.org/2000/svg">
  <defs>
    <style type="text/css">
    

    .circle {
      fill: #DA3821;
      stroke-width: 7;
    }

    .a {
      opacity: 1;
      font-size: 24px;
    }

    .b {
      opacity: 1;
      font-size: 24px;
    }
    
    
  </style>
  </defs>
  <path class="circle" id="svg_2" d="M 51.275 194.831 C 51.275 113.115 117.465 46.925 199.182 46.925 C 280.898 46.925 347.088 113.115 347.088 194.831 C 347.088 276.548 280.898 342.738 199.182 342.738 C 117.465 342.738 51.275 276.548 51.275 194.831 Z" stroke-opacity="null" stroke-linecap="null" stroke-linejoin="null" stroke="#e45f4d" fill-opacity="null"/>
  <path d="M 9.34 262.047 L 105.995 7.262 L 145.694 7.262 L 225.724 229.048 L 202.256 292.531 L 175.907 218.052 L 72.971 218.052 L 59.227 262.047 L 9.34 262.047 Z M 86.672 180.812 L 162.908 180.812 C 154.02 155.517 146.291 132.576 139.721 111.954 C 133.152 91.332 128.233 75.066 124.966 63.121 C 120.996 75.768 115.832 92.386 109.508 113.008 C 102.938 133.384 95.35 155.974 86.672 180.812 Z" style="fill: rgb(255, 255, 255); white-space: pre;"/>
  <path d="M 180.018 341.061 L 180.018 88.035 C 181.763 88.035 185.751 87.968 191.982 87.835 C 198.213 87.718 205.191 87.661 212.917 87.661 C 220.644 87.661 228.37 87.604 236.096 87.487 C 243.823 87.355 250.178 87.287 255.163 87.287 C 284.074 87.287 306.074 93.018 321.161 104.48 C 336.232 115.941 343.766 132.137 343.766 153.067 C 343.766 165.276 340.402 176.239 333.672 185.956 C 326.943 195.674 317.597 203.522 305.633 209.502 C 320.587 215.233 331.995 223.331 339.853 233.796 C 347.697 244.261 351.617 256.345 351.617 270.049 C 351.617 291.477 343.517 308.737 327.317 321.826 C 311.116 334.899 286.567 341.435 253.667 341.435 C 246.938 341.435 239.71 341.435 231.984 341.435 C 224.258 341.435 216.905 341.368 209.927 341.235 C 202.948 341.118 196.774 341.061 191.408 341.061 C 186.057 341.061 182.261 341.061 180.018 341.061 Z M 224.507 227.816 L 224.507 309.293 L 256.658 309.293 C 273.606 309.293 285.762 305.498 293.122 297.906 C 300.467 290.299 304.138 280.763 304.138 269.302 C 304.138 264.069 303.323 258.961 301.695 253.978 C 300.083 248.995 297.284 244.51 293.296 240.523 C 289.308 236.537 284.007 233.365 277.395 231.005 C 270.797 228.631 262.515 227.442 252.546 227.442 C 246.564 227.442 241.273 227.442 236.67 227.442 C 232.051 227.442 227.996 227.567 224.507 227.816 Z M 224.507 119.43 L 224.507 195.674 L 253.294 195.674 C 268.996 195.674 280.211 192.061 286.941 184.835 C 293.67 177.609 297.035 168.764 297.035 158.299 C 297.035 153.565 296.287 148.831 294.791 144.097 C 293.296 139.363 290.746 135.127 287.14 131.389 C 283.519 127.652 278.658 124.662 272.56 122.419 C 266.446 120.177 258.777 119.056 249.555 119.056 C 244.072 119.056 239.279 119.056 235.174 119.056 C 231.054 119.056 227.498 119.18 224.507 119.43 Z" style="fill: rgb(255, 255, 255); white-space: pre;" transform="matrix(0.946424, -0.322927, 0.322927, 0.946424, -54.98148, 97.324274)"/>
</svg>